<svg xmlns="http://www.w3.org/2000/svg" viewBox="0 0 100 100">
  <!-- 背景 -->
  <circle cx="50" cy="50" r="48" fill="#ff6b35"/>
  <!-- アンテナ -->
  <line x1="50" y1="18" x2="50" y2="8" stroke="#fff" stroke-width="3"/>
  <circle cx="50" cy="6" r="4" fill="#fff"/>
  <!-- 頭 -->
  <rect x="25" y="20" width="50" height="45" rx="8" fill="#fff"/>
  <!-- 目 -->
  <rect x="32" y="32" width="12" height="14" rx="2" fill="#333"/>
  <rect x="56" y="32" width="12" height="14" rx="2" fill="#333"/>
  <rect x="35" y="35" width="4" height="4" fill="#4ade80"/>
  <rect x="59" y="35" width="4" height="4" fill="#4ade80"/>
  <!-- 口 -->
  <rect x="35" y="52" width="30" height="6" rx="2" fill="#333"/>
  <rect x="38" y="53" width="4" height="4" fill="#4ade80"/>
  <rect x="48" y="53" width="4" height="4" fill="#4ade80"/>
  <rect x="58" y="53" width="4" height="4" fill="#4ade80"/>
  <!-- 体 -->
  <rect x="30" y="68" width="40" height="22" rx="5" fill="#fff"/>
  <!-- ボタン -->
  <circle cx="42" cy="78" r="4" fill="#ff6b35"/>
  <circle cx="58" cy="78" r="4" fill="#4a90d9"/>
</svg>